<?xml version="1.0" encoding="UTF-8"?>
<!DOCTYPE svg PUBLIC "-//W3C//DTD SVG 1.1//EN" "http://www.w3.org/Graphics/SVG/1.1/DTD/svg11.dtd">
<svg xmlns="http://www.w3.org/2000/svg" version="1.1" width="32px" height="32px" style="shape-rendering:geometricPrecision; text-rendering:geometricPrecision; image-rendering:optimizeQuality; fill-rule:evenodd; clip-rule:evenodd" xmlns:xlink="http://www.w3.org/1999/xlink">
<g><path style="opacity:0.976" fill="#bc7d40" d="M 9.5,-0.5 C 13.5,-0.5 17.5,-0.5 21.5,-0.5C 25.8333,1.83333 29.1667,5.16667 31.5,9.5C 31.5,13.5 31.5,17.5 31.5,21.5C 29.1667,25.8333 25.8333,29.1667 21.5,31.5C 17.5,31.5 13.5,31.5 9.5,31.5C 5.16667,29.1667 1.83333,25.8333 -0.5,21.5C -0.5,17.5 -0.5,13.5 -0.5,9.5C 1.83333,5.16667 5.16667,1.83333 9.5,-0.5 Z"/></g>
<g><path style="opacity:1" fill="#eeddcd" d="M 11.5,9.5 C 14.6852,9.01964 17.5185,9.68631 20,11.5C 20.8334,15.8362 19.0001,17.8362 14.5,17.5C 14.5,18.8333 14.5,20.1667 14.5,21.5C 13.5,21.5 12.5,21.5 11.5,21.5C 11.5,17.5 11.5,13.5 11.5,9.5 Z"/></g>
<g><path style="opacity:1" fill="#bd8044" d="M 14.5,11.5 C 16.3464,11.2222 17.6798,11.8888 18.5,13.5C 17.6798,15.1112 16.3464,15.7778 14.5,15.5C 14.5,14.1667 14.5,12.8333 14.5,11.5 Z"/></g>
<g><path style="opacity:1" fill="#f3e7dd" d="M 1.5,9.5 C 3.85684,9.33669 6.19018,9.50335 8.5,10C 13.0424,18.2635 10.7091,22.0968 1.5,21.5C 1.5,17.5 1.5,13.5 1.5,9.5 Z"/></g>
<g><path style="opacity:1" fill="#c38a52" d="M 3.5,16.5 C 5.16667,16.5 6.83333,16.5 8.5,16.5C 8.5,17.5 8.5,18.5 8.5,19.5C 6.83333,19.5 5.16667,19.5 3.5,19.5C 3.5,18.5 3.5,17.5 3.5,16.5 Z"/></g>
<g><path style="opacity:1" fill="#c1874e" d="M 3.5,11.5 C 4.83333,11.5 6.16667,11.5 7.5,11.5C 7.5,12.5 7.5,13.5 7.5,14.5C 6.16667,14.5 4.83333,14.5 3.5,14.5C 3.5,13.5 3.5,12.5 3.5,11.5 Z"/></g>
<g><path style="opacity:1" fill="#f2e4d8" d="M 21.5,9.5 C 23.4023,12.3373 24.069,15.6707 23.5,19.5C 25.604,19.2011 27.604,19.5344 29.5,20.5C 26.9135,21.48 24.2469,21.8134 21.5,21.5C 21.5,17.5 21.5,13.5 21.5,9.5 Z"/></g>
</svg>
